<mxfile host="app.diagrams.net" agent="Mozilla/5.0 (X11; Ubuntu; Linux x86_64; rv:132.0) Gecko/20100101 Firefox/132.0" version="24.7.10">
  <diagram name="Page-1" id="58cdce13-f638-feb5-8d6f-7d28b1aa9fa0">
    <mxGraphModel dx="1434" dy="774" grid="1" gridSize="10" guides="1" tooltips="1" connect="1" arrows="1" fold="1" page="1" pageScale="1" pageWidth="1100" pageHeight="850" background="none" math="0" shadow="0">
      <root>
        <mxCell id="0" />
        <mxCell id="1" parent="0" />
        <mxCell id="2a3bc250acf0617d-8" value="frame" style="shape=umlFrame;whiteSpace=wrap;html=1;rounded=1;shadow=0;comic=0;labelBackgroundColor=none;strokeWidth=1;fontFamily=Verdana;fontSize=12;align=center;movable=0;resizable=0;rotatable=0;deletable=0;editable=0;locked=1;connectable=0;" parent="1" vertex="1">
          <mxGeometry x="20" y="10" width="1050" height="745" as="geometry" />
        </mxCell>
        <mxCell id="KeID--GRCDygiFUdQbDZ-1" value="数据流与存储" style="swimlane;whiteSpace=wrap;html=1;" vertex="1" parent="1">
          <mxGeometry x="640" y="155.5" width="340" height="195" as="geometry" />
        </mxCell>
        <mxCell id="KeID--GRCDygiFUdQbDZ-2" value="数据库" style="shape=cylinder3;whiteSpace=wrap;html=1;boundedLbl=1;backgroundOutline=1;size=15;" vertex="1" parent="KeID--GRCDygiFUdQbDZ-1">
          <mxGeometry x="40" y="60" width="60" height="80" as="geometry" />
        </mxCell>
        <mxCell id="KeID--GRCDygiFUdQbDZ-4" value="S3 存储" style="shape=datastore;whiteSpace=wrap;html=1;" vertex="1" parent="KeID--GRCDygiFUdQbDZ-1">
          <mxGeometry x="130" y="67.5" width="60" height="60" as="geometry" />
        </mxCell>
        <mxCell id="KeID--GRCDygiFUdQbDZ-6" value="RabbitMQ" style="strokeWidth=2;html=1;shape=mxgraph.flowchart.direct_data;whiteSpace=wrap;" vertex="1" parent="KeID--GRCDygiFUdQbDZ-1">
          <mxGeometry x="220" y="67.5" width="100" height="60" as="geometry" />
        </mxCell>
        <mxCell id="KeID--GRCDygiFUdQbDZ-8" value="" style="fontStyle=1;align=center;verticalAlign=top;childLayout=stackLayout;horizontal=1;horizontalStack=0;resizeParent=1;resizeParentMax=0;resizeLast=0;marginBottom=0;" vertex="1" parent="1">
          <mxGeometry x="470" y="155.5" width="150" height="128" as="geometry" />
        </mxCell>
        <mxCell id="KeID--GRCDygiFUdQbDZ-9" value="文件服务" style="html=1;align=left;spacingLeft=4;verticalAlign=top;strokeColor=none;fillColor=none;whiteSpace=wrap;" vertex="1" parent="KeID--GRCDygiFUdQbDZ-8">
          <mxGeometry width="150" height="40" as="geometry" />
        </mxCell>
        <mxCell id="KeID--GRCDygiFUdQbDZ-10" value="" style="shape=module;jettyWidth=10;jettyHeight=4;" vertex="1" parent="KeID--GRCDygiFUdQbDZ-9">
          <mxGeometry x="1" width="16" height="20" relative="1" as="geometry">
            <mxPoint x="-25" y="9" as="offset" />
          </mxGeometry>
        </mxCell>
        <mxCell id="KeID--GRCDygiFUdQbDZ-11" value="" style="line;strokeWidth=1;fillColor=none;align=left;verticalAlign=middle;spacingTop=-1;spacingLeft=3;spacingRight=3;rotatable=0;labelPosition=right;points=[];portConstraint=eastwest;" vertex="1" parent="KeID--GRCDygiFUdQbDZ-8">
          <mxGeometry y="40" width="150" height="8" as="geometry" />
        </mxCell>
        <mxCell id="KeID--GRCDygiFUdQbDZ-42" style="edgeStyle=orthogonalEdgeStyle;rounded=0;orthogonalLoop=1;jettySize=auto;html=1;" edge="1" parent="KeID--GRCDygiFUdQbDZ-8" source="KeID--GRCDygiFUdQbDZ-12">
          <mxGeometry relative="1" as="geometry">
            <mxPoint x="180" y="84" as="targetPoint" />
          </mxGeometry>
        </mxCell>
        <mxCell id="KeID--GRCDygiFUdQbDZ-12" value="&lt;div&gt;文件上传&lt;/div&gt;&lt;div&gt;任务生成&lt;/div&gt;&lt;div&gt;标签标注&lt;/div&gt;&lt;div&gt;检索&lt;br&gt;&lt;/div&gt;" style="html=1;align=center;spacingLeft=4;verticalAlign=top;strokeColor=none;fillColor=none;whiteSpace=wrap;" vertex="1" parent="KeID--GRCDygiFUdQbDZ-8">
          <mxGeometry y="48" width="150" height="72" as="geometry" />
        </mxCell>
        <mxCell id="KeID--GRCDygiFUdQbDZ-14" value="" style="line;strokeWidth=1;fillColor=none;align=left;verticalAlign=middle;spacingTop=-1;spacingLeft=3;spacingRight=3;rotatable=0;labelPosition=right;points=[];portConstraint=eastwest;" vertex="1" parent="KeID--GRCDygiFUdQbDZ-8">
          <mxGeometry y="120" width="150" height="8" as="geometry" />
        </mxCell>
        <mxCell id="KeID--GRCDygiFUdQbDZ-20" value="照片上传接口" style="html=1;verticalAlign=bottom;labelBackgroundColor=none;startArrow=oval;startFill=0;startSize=8;endArrow=none;rounded=0;entryX=0.027;entryY=0.41;entryDx=0;entryDy=0;entryPerimeter=0;" edge="1" parent="1" target="KeID--GRCDygiFUdQbDZ-12">
          <mxGeometry x="-0.1578" y="6" relative="1" as="geometry">
            <mxPoint x="340" y="231" as="sourcePoint" />
            <mxPoint x="502.02" y="231" as="targetPoint" />
            <mxPoint as="offset" />
          </mxGeometry>
        </mxCell>
        <mxCell id="KeID--GRCDygiFUdQbDZ-31" value="" style="endArrow=none;html=1;rounded=0;align=center;verticalAlign=top;endFill=0;labelBackgroundColor=none;endSize=2;exitX=0.864;exitY=0.483;exitDx=0;exitDy=0;exitPerimeter=0;" edge="1" source="KeID--GRCDygiFUdQbDZ-40" target="KeID--GRCDygiFUdQbDZ-32" parent="1">
          <mxGeometry relative="1" as="geometry">
            <mxPoint x="240" y="232" as="sourcePoint" />
          </mxGeometry>
        </mxCell>
        <mxCell id="KeID--GRCDygiFUdQbDZ-32" value="" style="shape=requiredInterface;html=1;fontSize=11;align=center;fillColor=none;points=[];aspect=fixed;resizable=0;verticalAlign=bottom;labelPosition=center;verticalLabelPosition=top;flipH=1;" vertex="1" parent="1">
          <mxGeometry x="329" y="227" width="5" height="10" as="geometry" />
        </mxCell>
        <mxCell id="KeID--GRCDygiFUdQbDZ-36" style="edgeStyle=orthogonalEdgeStyle;rounded=0;orthogonalLoop=1;jettySize=auto;html=1;dashed=1;" edge="1" parent="1" source="KeID--GRCDygiFUdQbDZ-35">
          <mxGeometry relative="1" as="geometry">
            <mxPoint x="340" y="220" as="targetPoint" />
          </mxGeometry>
        </mxCell>
        <mxCell id="KeID--GRCDygiFUdQbDZ-37" value="直接接口上传" style="edgeLabel;html=1;align=center;verticalAlign=middle;resizable=0;points=[];" vertex="1" connectable="0" parent="KeID--GRCDygiFUdQbDZ-36">
          <mxGeometry x="-0.1068" y="-5" relative="1" as="geometry">
            <mxPoint as="offset" />
          </mxGeometry>
        </mxCell>
        <mxCell id="KeID--GRCDygiFUdQbDZ-38" style="rounded=0;orthogonalLoop=1;jettySize=auto;html=1;entryX=-0.023;entryY=0.617;entryDx=0;entryDy=0;entryPerimeter=0;edgeStyle=orthogonalEdgeStyle;curved=1;" edge="1" parent="1" source="KeID--GRCDygiFUdQbDZ-35" target="KeID--GRCDygiFUdQbDZ-40">
          <mxGeometry relative="1" as="geometry">
            <mxPoint x="80" y="150" as="sourcePoint" />
            <mxPoint x="140" y="232" as="targetPoint" />
          </mxGeometry>
        </mxCell>
        <mxCell id="KeID--GRCDygiFUdQbDZ-39" value="照片拷贝到固定的上传文件夹" style="edgeLabel;html=1;align=center;verticalAlign=middle;resizable=0;points=[];" vertex="1" connectable="0" parent="KeID--GRCDygiFUdQbDZ-38">
          <mxGeometry x="-0.5432" relative="1" as="geometry">
            <mxPoint as="offset" />
          </mxGeometry>
        </mxCell>
        <mxCell id="KeID--GRCDygiFUdQbDZ-35" value="无人机" style="shape=actor;whiteSpace=wrap;html=1;" vertex="1" parent="1">
          <mxGeometry x="70" y="20" width="40" height="60" as="geometry" />
        </mxCell>
        <mxCell id="KeID--GRCDygiFUdQbDZ-40" value="文件夹监控上传" style="strokeWidth=2;html=1;shape=mxgraph.flowchart.multi-document;whiteSpace=wrap;" vertex="1" parent="1">
          <mxGeometry x="60" y="191.5" width="130" height="81" as="geometry" />
        </mxCell>
        <mxCell id="KeID--GRCDygiFUdQbDZ-41" style="edgeStyle=orthogonalEdgeStyle;rounded=0;orthogonalLoop=1;jettySize=auto;html=1;exitX=0.75;exitY=1;exitDx=0;exitDy=0;entryX=0.5;entryY=1;entryDx=0;entryDy=0;" edge="1" parent="1" source="KeID--GRCDygiFUdQbDZ-35" target="KeID--GRCDygiFUdQbDZ-35">
          <mxGeometry relative="1" as="geometry" />
        </mxCell>
        <mxCell id="KeID--GRCDygiFUdQbDZ-88" style="edgeStyle=orthogonalEdgeStyle;rounded=0;orthogonalLoop=1;jettySize=auto;html=1;exitX=0;exitY=0;exitDx=0;exitDy=60;exitPerimeter=0;" edge="1" parent="1" source="KeID--GRCDygiFUdQbDZ-84" target="KeID--GRCDygiFUdQbDZ-2">
          <mxGeometry relative="1" as="geometry" />
        </mxCell>
        <mxCell id="KeID--GRCDygiFUdQbDZ-89" value="识别结果" style="edgeLabel;html=1;align=center;verticalAlign=middle;resizable=0;points=[];" vertex="1" connectable="0" parent="KeID--GRCDygiFUdQbDZ-88">
          <mxGeometry x="-0.0954" y="-1" relative="1" as="geometry">
            <mxPoint as="offset" />
          </mxGeometry>
        </mxCell>
        <mxCell id="KeID--GRCDygiFUdQbDZ-92" value="" style="edgeStyle=orthogonalEdgeStyle;rounded=0;orthogonalLoop=1;jettySize=auto;html=1;entryX=1;entryY=0.417;entryDx=0;entryDy=0;entryPerimeter=0;" edge="1" parent="1" source="KeID--GRCDygiFUdQbDZ-84" target="KeID--GRCDygiFUdQbDZ-93">
          <mxGeometry relative="1" as="geometry">
            <mxPoint x="395" y="425" as="targetPoint" />
          </mxGeometry>
        </mxCell>
        <mxCell id="KeID--GRCDygiFUdQbDZ-84" value="识别模型" style="verticalAlign=top;align=left;shape=cube;size=10;direction=south;fontStyle=0;html=1;boundedLbl=1;spacingLeft=5;whiteSpace=wrap;" vertex="1" parent="1">
          <mxGeometry x="480" y="355" width="130" height="140" as="geometry" />
        </mxCell>
        <mxCell id="KeID--GRCDygiFUdQbDZ-85" value="模型1" style="verticalAlign=top;align=center;shape=cube;size=10;direction=south;html=1;boundedLbl=1;spacingLeft=5;whiteSpace=wrap;" vertex="1" parent="KeID--GRCDygiFUdQbDZ-84">
          <mxGeometry width="100" height="80" relative="1" as="geometry">
            <mxPoint x="10" y="50" as="offset" />
          </mxGeometry>
        </mxCell>
        <mxCell id="KeID--GRCDygiFUdQbDZ-86" style="edgeStyle=orthogonalEdgeStyle;rounded=0;orthogonalLoop=1;jettySize=auto;html=1;entryX=0;entryY=0;entryDx=65;entryDy=0;entryPerimeter=0;exitX=0.5;exitY=1;exitDx=0;exitDy=0;exitPerimeter=0;" edge="1" parent="1" source="KeID--GRCDygiFUdQbDZ-6" target="KeID--GRCDygiFUdQbDZ-84">
          <mxGeometry relative="1" as="geometry" />
        </mxCell>
        <mxCell id="KeID--GRCDygiFUdQbDZ-87" value="识别任务" style="edgeLabel;html=1;align=center;verticalAlign=middle;resizable=0;points=[];" vertex="1" connectable="0" parent="KeID--GRCDygiFUdQbDZ-86">
          <mxGeometry x="-0.0234" y="3" relative="1" as="geometry">
            <mxPoint as="offset" />
          </mxGeometry>
        </mxCell>
        <mxCell id="KeID--GRCDygiFUdQbDZ-93" value="通知与警告" style="rounded=0;whiteSpace=wrap;html=1;" vertex="1" parent="1">
          <mxGeometry x="310" y="410" width="120" height="60" as="geometry" />
        </mxCell>
        <mxCell id="KeID--GRCDygiFUdQbDZ-94" value="前端结果展示，查询" style="rounded=0;whiteSpace=wrap;html=1;" vertex="1" parent="1">
          <mxGeometry x="640" y="30" width="120" height="60" as="geometry" />
        </mxCell>
        <mxCell id="KeID--GRCDygiFUdQbDZ-95" style="edgeStyle=orthogonalEdgeStyle;rounded=0;orthogonalLoop=1;jettySize=auto;html=1;exitX=0.5;exitY=0;exitDx=0;exitDy=0;" edge="1" parent="1" source="KeID--GRCDygiFUdQbDZ-9" target="KeID--GRCDygiFUdQbDZ-94">
          <mxGeometry relative="1" as="geometry">
            <mxPoint x="545" y="60" as="targetPoint" />
          </mxGeometry>
        </mxCell>
        <mxCell id="KeID--GRCDygiFUdQbDZ-96" value="检索和质检" style="rounded=0;whiteSpace=wrap;html=1;" vertex="1" parent="1">
          <mxGeometry x="840" y="30" width="120" height="60" as="geometry" />
        </mxCell>
        <mxCell id="KeID--GRCDygiFUdQbDZ-97" style="edgeStyle=orthogonalEdgeStyle;rounded=0;orthogonalLoop=1;jettySize=auto;html=1;exitX=0.5;exitY=0;exitDx=0;exitDy=0;" edge="1" parent="1" source="KeID--GRCDygiFUdQbDZ-9" target="KeID--GRCDygiFUdQbDZ-96">
          <mxGeometry relative="1" as="geometry" />
        </mxCell>
        <mxCell id="KeID--GRCDygiFUdQbDZ-100" value="训练模型" style="verticalAlign=top;align=left;shape=cube;size=10;direction=south;fontStyle=0;html=1;boundedLbl=1;spacingLeft=5;whiteSpace=wrap;" vertex="1" parent="1">
          <mxGeometry x="610" y="570" width="130" height="140" as="geometry" />
        </mxCell>
        <mxCell id="KeID--GRCDygiFUdQbDZ-101" value="模型1" style="verticalAlign=top;align=center;shape=cube;size=10;direction=south;html=1;boundedLbl=1;spacingLeft=5;whiteSpace=wrap;" vertex="1" parent="KeID--GRCDygiFUdQbDZ-100">
          <mxGeometry width="100" height="80" relative="1" as="geometry">
            <mxPoint x="10" y="50" as="offset" />
          </mxGeometry>
        </mxCell>
        <mxCell id="KeID--GRCDygiFUdQbDZ-103" value="" style="endArrow=none;dashed=1;html=1;dashPattern=1 3;strokeWidth=2;rounded=0;" edge="1" parent="1">
          <mxGeometry width="50" height="50" relative="1" as="geometry">
            <mxPoint x="20" y="540" as="sourcePoint" />
            <mxPoint x="1070" y="540" as="targetPoint" />
          </mxGeometry>
        </mxCell>
        <mxCell id="KeID--GRCDygiFUdQbDZ-105" value="训练数据集" style="shape=cube;whiteSpace=wrap;html=1;boundedLbl=1;backgroundOutline=1;darkOpacity=0.05;darkOpacity2=0.1;" vertex="1" parent="1">
          <mxGeometry x="940" y="590" width="120" height="80" as="geometry" />
        </mxCell>
        <mxCell id="KeID--GRCDygiFUdQbDZ-104" value="" style="shape=flexArrow;endArrow=classic;html=1;rounded=0;" edge="1" parent="1" source="KeID--GRCDygiFUdQbDZ-100" target="KeID--GRCDygiFUdQbDZ-85">
          <mxGeometry width="50" height="50" relative="1" as="geometry">
            <mxPoint x="530" y="380" as="sourcePoint" />
            <mxPoint x="580" y="330" as="targetPoint" />
          </mxGeometry>
        </mxCell>
        <mxCell id="KeID--GRCDygiFUdQbDZ-106" style="edgeStyle=orthogonalEdgeStyle;rounded=0;orthogonalLoop=1;jettySize=auto;html=1;entryX=0.125;entryY=-0.03;entryDx=0;entryDy=0;entryPerimeter=0;" edge="1" parent="1" source="KeID--GRCDygiFUdQbDZ-105" target="KeID--GRCDygiFUdQbDZ-101">
          <mxGeometry relative="1" as="geometry" />
        </mxCell>
        <mxCell id="KeID--GRCDygiFUdQbDZ-99" value="" style="edgeStyle=orthogonalEdgeStyle;rounded=0;orthogonalLoop=1;jettySize=auto;html=1;entryX=0.833;entryY=0.125;entryDx=0;entryDy=0;entryPerimeter=0;exitX=1;exitY=0.5;exitDx=0;exitDy=0;" edge="1" parent="1" source="KeID--GRCDygiFUdQbDZ-96" target="KeID--GRCDygiFUdQbDZ-105">
          <mxGeometry relative="1" as="geometry">
            <mxPoint x="1030" y="560" as="targetPoint" />
          </mxGeometry>
        </mxCell>
        <mxCell id="KeID--GRCDygiFUdQbDZ-108" style="edgeStyle=orthogonalEdgeStyle;rounded=0;orthogonalLoop=1;jettySize=auto;html=1;" edge="1" parent="1" source="KeID--GRCDygiFUdQbDZ-107" target="KeID--GRCDygiFUdQbDZ-105">
          <mxGeometry relative="1" as="geometry" />
        </mxCell>
        <mxCell id="KeID--GRCDygiFUdQbDZ-109" value="初始训练集" style="edgeLabel;html=1;align=center;verticalAlign=middle;resizable=0;points=[];" vertex="1" connectable="0" parent="KeID--GRCDygiFUdQbDZ-108">
          <mxGeometry x="-0.2286" y="1" relative="1" as="geometry">
            <mxPoint as="offset" />
          </mxGeometry>
        </mxCell>
        <mxCell id="KeID--GRCDygiFUdQbDZ-107" value="" style="ellipse;fillColor=strokeColor;html=1;" vertex="1" parent="1">
          <mxGeometry x="885" y="710" width="30" height="30" as="geometry" />
        </mxCell>
      </root>
    </mxGraphModel>
  </diagram>
</mxfile>
